<svg xmlns="http://www.w3.org/2000/svg" width="800" height="70" viewBox="0 0 800 70" xmlns:xlink="http://www.w3.org/1999/xlink"><defs><style>@media(prefers-color-scheme:dark){:root{filter:invert(1)}}</style></defs><g transform="translate(0.5,0.5)" text-anchor="middle" font-size="14" font-family="sans-serif" font-weight="normal"><g transform="translate(4,21)"><g stroke="black" stroke-width="1" stroke-linecap="round"><line x2="791"/><line y2="31"/><line x2="791" y1="31" y2="31"/><line x1="791" x2="791" y2="31"/><line x1="692" x2="692" y2="3"/><line x1="692" x2="692" y1="31" y2="28"/><line x1="593" x2="593" y2="31"/><line x1="494" x2="494" y2="3"/><line x1="494" x2="494" y1="31" y2="28"/><line x1="396" x2="396" y2="31"/><line x1="297" x2="297" y2="3"/><line x1="297" x2="297" y1="31" y2="28"/><line x1="198" x2="198" y2="31"/><line x1="99" x2="99" y2="3"/><line x1="99" x2="99" y1="31" y2="28"/></g><g><g/><g transform="translate(49,-11)"><g transform="translate(692)"><text y="6">0</text></g><g transform="translate(593)"><text y="6">1</text></g><g transform="translate(494)"><text y="6">2</text></g><g transform="translate(396)"><text y="6">3</text></g><g transform="translate(297)"><text y="6">4</text></g><g transform="translate(198)"><text y="6">5</text></g><g transform="translate(99)"><text y="6">6</text></g><g transform="translate(0)"><text y="6">7</text></g></g><g transform="translate(49,15)"><g transform="translate(643)"><text y="6"><tspan>pin_0</tspan></text></g><g transform="translate(445)"><text y="6"><tspan>pin_1</tspan></text></g><g transform="translate(247)"><text y="6"><tspan>pin_2</tspan></text></g><g transform="translate(49)"><text y="6"><tspan>pin_3</tspan></text></g></g><g transform="translate(49,39)"><g transform="translate(643)"><text y="6"><tspan>W</tspan></text></g><g transform="translate(445)"><text y="6"><tspan>W</tspan></text></g><g transform="translate(247)"><text y="6"><tspan>W</tspan></text></g><g transform="translate(49)"><text y="6"><tspan>W</tspan></text></g></g></g></g></g></svg>
