<svg xmlns="http://www.w3.org/2000/svg" width="800" height="140" viewBox="0 0 800 140" xmlns:xlink="http://www.w3.org/1999/xlink"><rect width="100%" height="100%" fill="white"/><g transform="translate(0.5,0.5)" text-anchor="middle" font-size="14" font-family="sans-serif" font-weight="normal"><g transform="translate(4,91)"><g stroke="black" stroke-width="1" stroke-linecap="round"><line x2="791"/><line y2="31"/><line x2="791" y1="31" y2="31"/><line x1="791" x2="791" y2="31"/><line x1="692" x2="692" y2="31"/><line x1="593" x2="593" y2="31"/><line x1="494" x2="494" y2="31"/><line x1="396" x2="396" y2="31"/><line x1="297" x2="297" y2="3"/><line x1="297" x2="297" y1="31" y2="28"/><line x1="198" x2="198" y2="3"/><line x1="198" x2="198" y1="31" y2="28"/><line x1="99" x2="99" y2="3"/><line x1="99" x2="99" y1="31" y2="28"/></g><g><g><rect width="396" height="31" style="fill-opacity:0.1"/></g><g transform="translate(49,-11)"><g transform="translate(692)"><text y="6">0</text></g><g transform="translate(593)"><text y="6">1</text></g><g transform="translate(494)"><text y="6">2</text></g><g transform="translate(396)"><text y="6">3</text></g><g transform="translate(297)"><text y="6">4</text></g><g transform="translate(0)"><text y="6">7</text></g></g><g transform="translate(49,15)"><g transform="translate(692)"><text y="6"><tspan>set_0</tspan></text></g><g transform="translate(593)"><text y="6"><tspan>set_1</tspan></text></g><g transform="translate(494)"><text y="6"><tspan>set_2</tspan></text></g><g transform="translate(396)"><text y="6"><tspan>set_3</tspan></text></g></g><g transform="translate(49,39)"><g transform="translate(692)"><text y="6"><tspan>W</tspan></text></g><g transform="translate(593)"><text y="6"><tspan>W</tspan></text></g><g transform="translate(494)"><text y="6"><tspan>W</tspan></text></g><g transform="translate(396)"><text y="6"><tspan>W</tspan></text></g><g transform="translate(148)"><text y="6"><tspan>ResR0W0</tspan></text></g></g></g></g><g transform="translate(4,21)"><g stroke="black" stroke-width="1" stroke-linecap="round"><line x2="791"/><line y2="31"/><line x2="791" y1="31" y2="31"/><line x1="791" x2="791" y2="31"/><line x1="692" x2="692" y2="31"/><line x1="593" x2="593" y2="31"/><line x1="494" x2="494" y2="31"/><line x1="396" x2="396" y2="31"/><line x1="297" x2="297" y2="3"/><line x1="297" x2="297" y1="31" y2="28"/><line x1="198" x2="198" y2="3"/><line x1="198" x2="198" y1="31" y2="28"/><line x1="99" x2="99" y2="3"/><line x1="99" x2="99" y1="31" y2="28"/></g><g><g><rect width="396" height="31" style="fill-opacity:0.1"/></g><g transform="translate(49,-11)"><g transform="translate(692)"><text y="6">8</text></g><g transform="translate(593)"><text y="6">9</text></g><g transform="translate(494)"><text y="6">10</text></g><g transform="translate(396)"><text y="6">11</text></g><g transform="translate(297)"><text y="6">12</text></g><g transform="translate(0)"><text y="6">15</text></g></g><g transform="translate(49,15)"><g transform="translate(692)"><text y="6"><tspan>clr_0</tspan></text></g><g transform="translate(593)"><text y="6"><tspan>clr_1</tspan></text></g><g transform="translate(494)"><text y="6"><tspan>clr_2</tspan></text></g><g transform="translate(396)"><text y="6"><tspan>clr_3</tspan></text></g></g><g transform="translate(49,39)"><g transform="translate(692)"><text y="6"><tspan>W</tspan></text></g><g transform="translate(593)"><text y="6"><tspan>W</tspan></text></g><g transform="translate(494)"><text y="6"><tspan>W</tspan></text></g><g transform="translate(396)"><text y="6"><tspan>W</tspan></text></g><g transform="translate(148)"><text y="6"><tspan>ResR0W0</tspan></text></g></g></g></g></g></svg>
