<svg version="1.1" xmlns="http://www.w3.org/2000/svg" viewBox="0 0 468.425852251204 284" width="468.425852251204" height="284">
  <!-- svg-source:excalidraw -->
  
  <defs>
    <style class="style-fonts">
      @font-face {
        font-family: "Virgil";
        src: url("https://excalidraw.com/Virgil.woff2");
      }
      @font-face {
        font-family: "Cascadia";
        src: url("https://excalidraw.com/Cascadia.woff2");
      }
      @font-face {
        font-family: "Assistant";
        src: url("https://excalidraw.com/Assistant-Regular.woff2");
      }
    </style>
    
  </defs>
  <rect x="0" y="0" width="468.425852251204" height="284" fill="#ffffff"></rect><g stroke-linecap="round" transform="translate(11 10) rotate(0 62 25)"><path d="M0 0 C28.75 -0.84, 60.2 0.92, 124 0 M0 0 C44.08 -0.09, 88.32 -0.06, 124 0 M124 0 C123.31 18.1, 125.47 38.91, 124 50 M124 0 C123.62 11, 123.01 20.84, 124 50 M124 50 C74.2 49.57, 24.29 50.48, 0 50 M124 50 C85.92 50.73, 46.92 51.49, 0 50 M0 50 C-0.22 35.59, -0.27 22.7, 0 0 M0 50 C0.28 36.48, 0.8 24.67, 0 0" stroke="#1e1e1e" stroke-width="2" fill="none"></path></g><g transform="translate(45.43000793457031 23) rotate(0 32.239967346191406 12.5)"><text x="32.239967346191406" y="0" font-family="Virgil, Segoe UI Emoji" font-size="20px" fill="#1e1e1e" text-anchor="middle" style="white-space: pre;" direction="ltr" dominant-baseline="text-before-edge">IData</text></g><g stroke-linecap="round" transform="translate(10 87) rotate(0 62 25)"><path d="M0 0 C43.03 1.17, 83.93 -0.91, 124 0 M0 0 C41.09 0.33, 84.54 -0.13, 124 0 M124 0 C122.83 13.56, 123.35 26.35, 124 50 M124 0 C123.22 13.76, 123.44 28.07, 124 50 M124 50 C74.32 49.51, 27.36 48.76, 0 50 M124 50 C82.59 49.22, 40.37 48.27, 0 50 M0 50 C-0.4 34.94, 1.93 19.26, 0 0 M0 50 C-0.18 30.49, -0.01 12.94, 0 0" stroke="#1e1e1e" stroke-width="2" fill="none"></path></g><g transform="translate(44.43000793457031 100) rotate(0 34.049964904785156 12.5)"><text x="34.049964904785156" y="0" font-family="Virgil, Segoe UI Emoji" font-size="20px" fill="#1e1e1e" text-anchor="middle" style="white-space: pre;" direction="ltr" dominant-baseline="text-before-edge">OData</text></g><g stroke-linecap="round" transform="translate(10 146) rotate(0 62 25)"><path d="M0 0 C46.79 2.26, 92.98 0.22, 124 0 M0 0 C42.22 0.43, 84.05 0.73, 124 0 M124 0 C123.04 10.7, 122.76 23.91, 124 50 M124 0 C123.71 13.21, 123.34 26.07, 124 50 M124 50 C76.25 52.39, 26.18 51.07, 0 50 M124 50 C98.85 50.17, 73.4 50.24, 0 50 M0 50 C-1.57 33.88, 1.2 16.92, 0 0 M0 50 C0.75 36.04, 0.78 23.16, 0 0" stroke="#1e1e1e" stroke-width="2" fill="none"></path></g><g transform="translate(44.06000518798828 159) rotate(0 31.889968872070312 12.5)"><text x="31.889968872070312" y="0" font-family="Virgil, Segoe UI Emoji" font-size="20px" fill="#1e1e1e" text-anchor="middle" style="white-space: pre;" direction="ltr" dominant-baseline="text-before-edge">OMask</text></g><g stroke-linecap="round" transform="translate(11 224) rotate(0 62 25)"><path d="M0 0 C34.85 1.02, 69.55 0.78, 124 0 M0 0 C37.45 0.64, 77.44 0.88, 124 0 M124 0 C123.52 18.43, 121.74 32.74, 124 50 M124 0 C123 11.06, 122.73 20.82, 124 50 M124 50 C86.94 49.57, 49.13 47.87, 0 50 M124 50 C97.29 50.72, 71.78 49.71, 0 50 M0 50 C-0.61 36.85, -0.23 23.34, 0 0 M0 50 C-0.21 35.35, 0.96 20.44, 0 0" stroke="#1e1e1e" stroke-width="2" fill="none"></path></g><g transform="translate(44 237) rotate(0 24.35997772216797 12.5)"><text x="0" y="0" font-family="Virgil, Segoe UI Emoji" font-size="20px" fill="#1e1e1e" text-anchor="start" style="white-space: pre;" direction="ltr" dominant-baseline="text-before-edge">Mode</text></g><g stroke-linecap="round"><g transform="translate(410.66242531751845 40.77542463684091) rotate(0 -29.244604012502236 0)"><path d="M0 0 C-12.33 0.09, -27.97 -0.09, -58.49 0 M0 0 C-13.09 -0.25, -26.2 -0.16, -58.49 0" stroke="#1e1e1e" stroke-width="1" fill="none"></path></g></g><mask></mask><g stroke-linecap="round" transform="translate(222.2075721886123 24.9937092169545) rotate(0 25.003338614355528 15.252874917917268)"><path d="M0 0 C12.01 0.34, 24.19 0.69, 50.01 0 M0 0 C16.34 -0.17, 33.61 -0.05, 50.01 0 M50.01 0 C50.24 8.6, 49.5 20.67, 50.01 30.51 M50.01 0 C50.42 11.19, 49.1 24.61, 50.01 30.51 M50.01 30.51 C32.07 31.29, 10.91 29.07, 0 30.51 M50.01 30.51 C34.38 30.04, 20.08 30.45, 0 30.51 M0 30.51 C-0.24 20.7, -0.35 8.49, 0 0 M0 30.51 C0.43 20.1, -0.87 7.54, 0 0" stroke="#1e1e1e" stroke-width="1" fill="none"></path></g><g stroke-linecap="round"><g transform="translate(223.15684882216863 28.74417291339276) rotate(0 2.901149967166873 2.175862475375169)"><path d="M0 0 C2.08 1.48, 3.82 2.7, 5.8 4.35 M0 0 C1.3 0.97, 2.7 2.12, 5.8 4.35" stroke="#1e1e1e" stroke-width="1" fill="none"></path></g></g><mask></mask><g stroke-linecap="round"><g transform="translate(228.4756237619746 32.612372869615285) rotate(0 -2.659387469902981 1.6923374808473568)"><path d="M0 0 C-1.62 1.03, -3.56 2.06, -5.32 3.38 M0 0 C-1.31 0.92, -2.63 1.68, -5.32 3.38" stroke="#1e1e1e" stroke-width="1" fill="none"></path></g></g><mask></mask><g stroke-linecap="round" transform="translate(411.68123258976766 19.807809473217475) rotate(0 21.927637629551327 21.084266951491614)"><path d="M10.54 0 C20.47 0.05, 29.27 -1.89, 33.31 0 M10.54 0 C18.24 -1.06, 28.7 -0.96, 33.31 0 M33.31 0 C39.98 0.29, 45.68 3.71, 43.86 10.54 M33.31 0 C40.03 1.17, 45.77 5.14, 43.86 10.54 M43.86 10.54 C44.13 18.17, 43.43 22.1, 43.86 31.63 M43.86 10.54 C42.97 15.33, 44.34 18.99, 43.86 31.63 M43.86 31.63 C42.35 38.96, 41.35 43.58, 33.31 42.17 M43.86 31.63 C45.83 40.11, 39.81 43.84, 33.31 42.17 M33.31 42.17 C29.26 40.8, 25.3 40.81, 10.54 42.17 M33.31 42.17 C27.08 42.02, 19.56 42.45, 10.54 42.17 M10.54 42.17 C2.94 42.69, 1.22 40.62, 0 31.63 M10.54 42.17 C2.63 43.3, 2.25 37.57, 0 31.63 M0 31.63 C0.81 25.84, 1.09 19.13, 0 10.54 M0 31.63 C-0.01 25.2, 0.77 18.93, 0 10.54 M0 10.54 C0.14 5.44, 3.53 0.54, 10.54 0 M0 10.54 C-1.56 2.94, 4.81 1.39, 10.54 0" stroke="#1e1e1e" stroke-width="1" fill="none"></path></g><g transform="translate(428.1588732710768 28.392076424709074) rotate(0 5.4499969482421875 12.5)"><text x="5.4499969482421875" y="0" font-family="Virgil, Segoe UI Emoji" font-size="20px" fill="#1e1e1e" text-anchor="middle" style="white-space: pre;" direction="ltr" dominant-baseline="text-before-edge">I</text></g><g stroke-linecap="round" transform="translate(413.503030371769 99.81966582781087) rotate(0 21.92763762955127 20.240896273431957)"><path d="M10.12 0 C17.44 -1.43, 23.75 0.36, 33.73 0 M10.12 0 C17.79 -0.76, 26.35 0.33, 33.73 0 M33.73 0 C40.79 -0.7, 43.68 3.06, 43.86 10.12 M33.73 0 C41.32 -0.62, 45.63 1.19, 43.86 10.12 M43.86 10.12 C44.51 15.9, 44.79 18.62, 43.86 30.36 M43.86 10.12 C43.51 15.86, 44.49 20.12, 43.86 30.36 M43.86 30.36 C43.03 35.88, 40.31 38.74, 33.73 40.48 M43.86 30.36 C42.04 39.32, 38.25 38.34, 33.73 40.48 M33.73 40.48 C25.27 42.62, 19.82 42.05, 10.12 40.48 M33.73 40.48 C24.95 40.17, 16.96 40.77, 10.12 40.48 M10.12 40.48 C3.86 39.48, 1.92 36.16, 0 30.36 M10.12 40.48 C2.64 39.37, -0.55 38.52, 0 30.36 M0 30.36 C-2.06 25.33, 0.7 16.95, 0 10.12 M0 30.36 C-0.64 25.03, 0.45 18.97, 0 10.12 M0 10.12 C-0.52 3.79, 2.55 -1.84, 10.12 0 M0 10.12 C-0.58 5.17, 5.36 -0.23, 10.12 0" stroke="#1e1e1e" stroke-width="1" fill="none"></path></g><g transform="translate(428.1706734944843 107.56056210124285) rotate(0 7.2599945068359375 12.5)"><text x="7.2599945068359375" y="0" font-family="Virgil, Segoe UI Emoji" font-size="20px" fill="#1e1e1e" text-anchor="middle" style="white-space: pre;" direction="ltr" dominant-baseline="text-before-edge">O</text></g><g stroke-linecap="round" transform="translate(302.19166407708633 24.287329101407494) rotate(0 25.003338614355528 15.252874917917268)"><path d="M0 0 C16.92 0.62, 39.62 1.22, 50.01 0 M0 0 C19.17 0.15, 36.2 0.08, 50.01 0 M50.01 0 C49.24 6.54, 48.32 13.69, 50.01 30.51 M50.01 0 C50.4 7.81, 50.72 13.03, 50.01 30.51 M50.01 30.51 C40.63 31.96, 27.26 32.1, 0 30.51 M50.01 30.51 C33.51 31.88, 15.59 31.33, 0 30.51 M0 30.51 C1.48 18.31, -0.95 9.73, 0 0 M0 30.51 C0.04 19.84, -0.4 8.6, 0 0" stroke="#1e1e1e" stroke-width="1" fill="none"></path></g><g stroke-linecap="round"><g transform="translate(303.14094071064267 28.037792797845754) rotate(0 2.901149967166873 2.175862475375169)"><path d="M0 0 C1.47 1.03, 2.66 1.94, 5.8 4.35 M0 0 C1.69 1.33, 3.46 2.55, 5.8 4.35" stroke="#1e1e1e" stroke-width="1" fill="none"></path></g></g><mask></mask><g stroke-linecap="round"><g transform="translate(308.45971565044863 31.905992754068308) rotate(0 -2.659387469902981 1.6923374808473568)"><path d="M0 0 C-1.49 1.11, -3.28 2.26, -5.32 3.38 M0 0 C-1.77 0.99, -3.43 2.12, -5.32 3.38" stroke="#1e1e1e" stroke-width="1" fill="none"></path></g></g><mask></mask><g stroke-linecap="round" transform="translate(414.57057699210145 177.2550831295046) rotate(0 21.92763762955127 20.240896273431957)"><path d="M10.12 0 C19.18 0.34, 24.11 1.49, 33.73 0 M10.12 0 C15.32 -0.41, 21.63 -0.34, 33.73 0 M33.73 0 C39.99 1.95, 43.66 2.74, 43.86 10.12 M33.73 0 C38.75 0.67, 43.85 5.3, 43.86 10.12 M43.86 10.12 C43.05 16.94, 42.39 26.05, 43.86 30.36 M43.86 10.12 C43.56 17.66, 43.75 25.42, 43.86 30.36 M43.86 30.36 C42.5 36.77, 39.43 38.92, 33.73 40.48 M43.86 30.36 C44.05 36.34, 40.84 38.55, 33.73 40.48 M33.73 40.48 C28.75 39.66, 20 40.17, 10.12 40.48 M33.73 40.48 C28.5 40.09, 22.83 39.8, 10.12 40.48 M10.12 40.48 C4.5 38.73, 1.75 38.81, 0 30.36 M10.12 40.48 C1.45 42.27, 1.68 35.61, 0 30.36 M0 30.36 C2 23.67, -1.5 17.05, 0 10.12 M0 30.36 C-0.11 25.65, 0.62 21.25, 0 10.12 M0 10.12 C-1.56 4.81, 1.89 -0.47, 10.12 0 M0 10.12 C-1.01 2.55, 1.59 -0.59, 10.12 0" stroke="#1e1e1e" stroke-width="1" fill="none"></path></g><g transform="translate(422.4982298804417 184.99597940293654) rotate(0 13.999984741210938 12.5)"><text x="13.999984741210938" y="0" font-family="Virgil, Segoe UI Emoji" font-size="20px" fill="#1e1e1e" text-anchor="middle" style="white-space: pre;" direction="ltr" dominant-baseline="text-before-edge">OE</text></g><g stroke-linecap="round"><g transform="translate(301.92869033831744 40.23033349021287) rotate(0 -14.975501267772358 1.4210854715202004e-14)"><path d="M0 0 C-11.18 0, -22.36 0, -29.95 0 M0 0 C-8.51 0, -17.01 0, -29.95 0" stroke="#1e1e1e" stroke-width="1" fill="none"></path></g></g><mask></mask><g stroke-linecap="round"><g transform="translate(220.67269761104376 39.93900191818847) rotate(0 -48.93863230340554 0.16250090598234124)"><path d="M0 0 C-29.18 0.1, -58.36 0.19, -97.88 0.33 M0 0 C-35.8 0.12, -71.6 0.24, -97.88 0.33" stroke="#1e1e1e" stroke-width="1" fill="none"></path></g><g transform="translate(220.67269761104376 39.93900191818847) rotate(0 -48.93863230340554 0.16250090598234124)"><path d="M-97.88 0.33 L-84.3 -6.06 L-84.26 6.62 L-97.88 0.33" stroke="none" stroke-width="0" fill="#1e1e1e" fill-rule="evenodd"></path><path d="M-97.88 0.33 C-93.83 -1.58, -89.78 -3.48, -84.3 -6.06 M-97.88 0.33 C-92.91 -2.01, -87.95 -4.35, -84.3 -6.06 M-84.3 -6.06 C-84.29 -3.36, -84.29 -0.67, -84.26 6.62 M-84.3 -6.06 C-84.29 -3.38, -84.29 -0.7, -84.26 6.62 M-84.26 6.62 C-87.29 5.22, -90.31 3.82, -97.88 0.33 M-84.26 6.62 C-87.89 4.94, -91.52 3.27, -97.88 0.33 M-97.88 0.33 C-97.88 0.33, -97.88 0.33, -97.88 0.33 M-97.88 0.33 C-97.88 0.33, -97.88 0.33, -97.88 0.33" stroke="#1e1e1e" stroke-width="1" fill="none"></path></g></g><mask></mask><g stroke-linecap="round"><g transform="translate(133.7920948026415 172.9843796913234) rotate(0 16.198700588062252 -0.37671396716422123)"><path d="M0 0 C6.6 0.66, 13.37 0.47, 32.4 -0.75 M0 0 C8.81 -0.39, 17.22 0.02, 32.4 -0.75" stroke="#1e1e1e" stroke-width="1" fill="none"></path></g></g><mask></mask><g stroke-linecap="round"><g transform="translate(166.17127174474638 172.52461761448353) rotate(0 -0.25721738944940853 -23.149565050443158)"><path d="M0 0 C-0.48 -13.02, 0.65 -24.58, -0.51 -46.3 M0 0 C0.02 -14.52, -0.97 -28.5, -0.51 -46.3" stroke="#1e1e1e" stroke-width="1" fill="none"></path></g></g><mask></mask><g stroke-linecap="round"><g transform="translate(165.3996195763982 125.71105273469846) rotate(0 -20.552004566678363 0.2643289219422513)"><path d="M0 0 C-14.96 -0.31, -30.32 1.26, -41.1 0.53 M0 0 C-10.99 0.37, -21.11 0.64, -41.1 0.53" stroke="#1e1e1e" stroke-width="1" fill="none"></path></g><g transform="translate(165.3996195763982 125.71105273469846) rotate(0 -20.552004566678363 0.2643289219422513)"><path d="M-41.45 -0.28 L-28.12 -5.5 L-27.55 6.01 L-40.72 1.04" stroke="none" stroke-width="0" fill="#1e1e1e" fill-rule="evenodd"></path><path d="M-41.1 0.53 C-36.04 -2.06, -31.28 -3.35, -27.51 -5.81 M-41.1 0.53 C-37.72 -1.15, -33.7 -2.7, -27.51 -5.81 M-27.51 -5.81 C-27.26 -0.98, -27.68 3.34, -27.51 6.87 M-27.51 -5.81 C-27.2 -0.5, -27.25 4.16, -27.51 6.87 M-27.51 6.87 C-32.24 4.67, -35.49 3.55, -41.1 0.53 M-27.51 6.87 C-32.59 4.45, -36.91 2.58, -41.1 0.53 M-41.1 0.53 C-41.1 0.53, -41.1 0.53, -41.1 0.53 M-41.1 0.53 C-41.1 0.53, -41.1 0.53, -41.1 0.53" stroke="#1e1e1e" stroke-width="1" fill="none"></path></g></g><mask></mask><g stroke-linecap="round"><g transform="translate(263.6014539921249 111.35104564627471) rotate(0 0.10849156686890638 36.81531526014888)"><path d="M0 0 C0.06 20.25, 0.12 40.5, 0.22 73.63 M0 0 C0.05 17.41, 0.1 34.83, 0.22 73.63" stroke="#1e1e1e" stroke-width="1" fill="none"></path></g></g><mask></mask><g stroke-linecap="round"><g transform="translate(263.8154440177293 185.1783023377485) rotate(0 15.61438154970591 0.07561459247762059)"><path d="M0 0 C9 0.95, 18 -0.53, 31.23 0.15 M0 0 C12.12 -0.23, 24.39 0.55, 31.23 0.15" stroke="#1e1e1e" stroke-width="1" fill="none"></path></g></g><mask></mask><g stroke-linecap="round"><g transform="translate(295.52034389072605 173.37181400440232) rotate(0 0 24.342183710549477)"><path d="M0 0 C0 13.96, 0 27.91, 0 48.68 M0 0 C0 10.01, 0 20.02, 0 48.68" stroke="#1e1e1e" stroke-width="1" fill="none"></path></g></g><mask></mask><g stroke-linecap="round"><g transform="translate(295.52034389072605 172.72698794584477) rotate(0 4.35257589526384 3.546543322066782)"><path d="M0 0 C2.24 1.46, 3.97 3.05, 8.71 7.09 M0 0 C3.6 2.95, 6.82 5.66, 8.71 7.09" stroke="#1e1e1e" stroke-width="1" fill="none"></path></g></g><mask></mask><g stroke-linecap="round"><g transform="translate(295.84275692000483 222.05618142550128) rotate(0 4.030162865985005 -4.030162865985034)"><path d="M0 0 C2.39 -2.46, 5.35 -5.7, 8.06 -8.06 M0 0 C3.13 -3.05, 6.48 -6.5, 8.06 -8.06" stroke="#1e1e1e" stroke-width="1" fill="none"></path></g></g><mask></mask><g stroke-linecap="round"><g transform="translate(303.90308265197484 179.17524853142078) rotate(0 -0.16120651463944569 17.571510095694634)"><path d="M0 0 C0.65 9.81, -0.45 18.2, -0.32 35.14 M0 0 C0.22 10.06, -0.14 20.37, -0.32 35.14" stroke="#1e1e1e" stroke-width="1" fill="none"></path></g></g><mask></mask><g stroke-linecap="round"><g transform="translate(334.7791208364823 208.83724722507054) rotate(270.249653232725 7.737912702691233 0)"><path d="M0 0 C4.22 0.25, 9.22 -0.49, 15.48 0 M0 0 C5.99 0.03, 11.23 0.23, 15.48 0" stroke="#1e1e1e" stroke-width="1" fill="none"></path></g></g><mask></mask><g stroke-linecap="round"><g transform="translate(345.23015137256414 206.589117839324) rotate(270.249653232725 3.6413706836194137 6.372398696333931)"><path d="M0 0 C2.67 2.93, 4.46 6.75, 7.28 12.74 M0 0 C2.01 4.24, 4.92 8.37, 7.28 12.74" stroke="#1e1e1e" stroke-width="1" fill="none"></path></g></g><mask></mask><g stroke-linecap="round"><g transform="translate(352.7003144516808 198.24504889825312) rotate(270.249653232725 -3.6413706836194706 6.524122474818057)"><path d="M0 0 C-1.78 4.16, -4.62 8.97, -7.28 13.05 M0 0 C-2 4.44, -4.69 8.38, -7.28 13.05" stroke="#1e1e1e" stroke-width="1" fill="none"></path></g></g><mask></mask><g stroke-linecap="round" transform="translate(356.3257294485719 206.4790865390596) rotate(270.249653232725 2.1241328987779866 1.9724091202938325)"><path d="M2.53 0.29 C3.01 0.33, 3.64 0.17, 3.96 0.48 C4.29 0.79, 4.51 1.66, 4.48 2.14 C4.45 2.62, 4.1 3.07, 3.78 3.36 C3.45 3.66, 3 3.81, 2.53 3.9 C2.06 3.99, 1.33 4.07, 0.96 3.91 C0.6 3.75, 0.5 3.31, 0.34 2.94 C0.17 2.57, -0.09 2.08, -0.03 1.69 C0.03 1.3, 0.32 0.88, 0.7 0.61 C1.09 0.34, 2 0.22, 2.3 0.08 C2.61 -0.07, 2.56 -0.24, 2.55 -0.26 M2.2 -0.37 C2.66 -0.42, 3.26 0.01, 3.59 0.37 C3.93 0.73, 4.2 1.34, 4.21 1.78 C4.22 2.22, 3.91 2.63, 3.66 3.01 C3.41 3.4, 3.09 4.05, 2.7 4.09 C2.31 4.12, 1.74 3.48, 1.33 3.24 C0.92 3, 0.52 2.95, 0.25 2.63 C-0.02 2.31, -0.42 1.66, -0.27 1.34 C-0.13 1.03, 0.73 0.93, 1.1 0.73 C1.48 0.53, 1.69 0.32, 1.97 0.14 C2.24 -0.03, 2.77 -0.36, 2.76 -0.32" stroke="#1e1e1e" stroke-width="1" fill="none"></path></g><g transform="translate(271.71759980038314 199.5222070129483) rotate(0 2.1680068969726562 10)"><text x="0" y="0" font-family="Virgil, Segoe UI Emoji" font-size="16px" fill="#1e1e1e" text-anchor="start" style="white-space: pre;" direction="ltr" dominant-baseline="text-before-edge">1</text></g><g stroke-linecap="round"><g transform="translate(280.5545278421497 209.0897849804236) rotate(0 7.4829080242882355 -0.2874753923159119)"><path d="M-0.38 0.12 C2.1 -0.04, 12.62 -0.64, 15.1 -0.77 M0.43 -0.29 C2.82 -0.39, 12.22 -0.2, 14.74 -0.17" stroke="#1e1e1e" stroke-width="1" fill="none"></path></g></g><mask></mask><g stroke-linecap="round"><g transform="translate(305.1927347690902 185.30109608771807) rotate(0 37.9370842976852 0.10765315721326374)"><path d="M0 0 C12.65 0.04, 63.23 0.18, 75.87 0.22 M0 0 C12.65 0.04, 63.23 0.18, 75.87 0.22" stroke="#1e1e1e" stroke-width="1" fill="none"></path></g></g><mask></mask><g stroke-linecap="round"><g transform="translate(321.95821229158776 186.2683351755545) rotate(0 0 11.445662539397404)"><path d="M0.28 0.11 C0.29 3.86, -0.37 18.65, -0.5 22.51 M-0.24 -0.31 C-0.02 3.5, 0.34 19.23, 0.47 23.01" stroke="#1e1e1e" stroke-width="1" fill="none"></path></g></g><mask></mask><g stroke-linecap="round"><g transform="translate(322.6030383501453 209.48207328362815) rotate(0 9.994803907642847 0)"><path d="M-0.12 0.27 C3.24 0.44, 16.73 0.5, 20.17 0.53 M0.82 -0.07 C4.13 0, 16.56 -0.11, 19.83 -0.17" stroke="#1e1e1e" stroke-width="1" fill="none"></path></g></g><mask></mask><g stroke-linecap="round"><g transform="translate(361.58007725591744 208.44495892186592) rotate(0 9.833378816058996 0.10743458026891517)"><path d="M0 0 C3.28 0.04, 16.39 0.18, 19.67 0.21 M0 0 C3.28 0.04, 16.39 0.18, 19.67 0.21" stroke="#1e1e1e" stroke-width="1" fill="none"></path></g></g><mask></mask><g stroke-linecap="round"><g transform="translate(381.44341619352645 173.8554335483206) rotate(0 0 24.342183710549477)"><path d="M0 0 C0 9.99, 0 19.98, 0 48.68 M0 0 C0 17.29, 0 34.58, 0 48.68" stroke="#1e1e1e" stroke-width="1" fill="none"></path></g></g><mask></mask><g stroke-linecap="round"><g transform="translate(381.44341619352645 173.21060748976305) rotate(0 4.35257589526384 3.546543322066782)"><path d="M0 0 C1.57 1.41, 3.8 2.82, 8.71 7.09 M0 0 C1.79 1.58, 3.54 2.99, 8.71 7.09" stroke="#1e1e1e" stroke-width="1" fill="none"></path></g></g><mask></mask><g stroke-linecap="round"><g transform="translate(381.7658292228052 222.53980096941945) rotate(0 4.030162865985005 -4.030162865985034)"><path d="M0 0 C3.16 -3.02, 5.53 -6.14, 8.06 -8.06 M0 0 C2.83 -2.78, 5.83 -5.72, 8.06 -8.06" stroke="#1e1e1e" stroke-width="1" fill="none"></path></g></g><mask></mask><g stroke-linecap="round"><g transform="translate(389.82615495477535 179.65886807533906) rotate(0 -0.16120651463944569 17.571510095694634)"><path d="M0 0 C-0.94 9.47, 0.45 20.51, -0.32 35.14 M0 0 C0.2 13.03, -0.11 25.99, -0.32 35.14" stroke="#1e1e1e" stroke-width="1" fill="none"></path></g></g><mask></mask><g stroke-linecap="round"><g transform="translate(389.6649484401361 196.2631390831973) rotate(0 12.251695112594462 0.48361954391819495)"><path d="M0.13 0.09 C4.26 0.35, 20.91 1.07, 25.04 1.14 M-0.47 -0.34 C3.61 -0.22, 20.68 0.05, 24.88 0.27" stroke="#1e1e1e" stroke-width="1" fill="none"></path></g><g transform="translate(389.6649484401361 196.2631390831973) rotate(0 12.251695112594462 0.48361954391819495)"><path d="M24.66 0.86 L12.65 4.58 L13.08 -5.17 L25 -0.58" stroke="none" stroke-width="0" fill="#1e1e1e" fill-rule="evenodd"></path><path d="M24.88 0.27 C21.04 2.57, 17.2 4.1, 13.62 5.11 M24.88 0.27 C22.44 1.51, 19.68 2.67, 13.62 5.11 M13.62 5.11 C13.39 1.99, 14.05 -0.54, 13.94 -5.25 M13.62 5.11 C13.76 2.51, 13.85 0.17, 13.94 -5.25 M13.94 -5.25 C17.23 -3.08, 20.52 -2.09, 24.88 0.27 M13.94 -5.25 C16.31 -4.21, 18.62 -2.88, 24.88 0.27 M24.88 0.27 C24.88 0.27, 24.88 0.27, 24.88 0.27 M24.88 0.27 C24.88 0.27, 24.88 0.27, 24.88 0.27" stroke="#1e1e1e" stroke-width="1" fill="none"></path></g></g><mask></mask><g stroke-linecap="round"><g transform="translate(134.18478891669736 249.40495247203643) rotate(0 126.09464652908002 1.0738966006963722)"><path d="M0 0 C42.03 0.36, 210.16 1.79, 252.19 2.15 M0 0 C42.03 0.36, 210.16 1.79, 252.19 2.15" stroke="#1e1e1e" stroke-width="1" fill="none"></path></g></g><mask></mask><g stroke-linecap="round"><g transform="translate(300.83826299148507 251.13384724063144) rotate(0 -0.13699321865561842 -16.576179457330483)"><path d="M0 0 C-0.05 -5.53, -0.23 -27.63, -0.27 -33.15 M0 0 C-0.05 -5.53, -0.23 -27.63, -0.27 -33.15" stroke="#1e1e1e" stroke-width="1" fill="none"></path></g></g><mask></mask><g stroke-linecap="round"><g transform="translate(387.1439907445284 251.40783367794268) rotate(0 -0.41097965596685526 -16.71317267598613)"><path d="M-0.48 -0.14 C-0.56 -5.63, -0.46 -27.51, -0.47 -33.15 M0.27 -0.69 C0.16 -6.32, -0.55 -28.48, -0.72 -33.97" stroke="#1e1e1e" stroke-width="1" fill="none"></path></g></g><mask></mask><g stroke-linecap="round"><g transform="translate(134.21393449360028 111.18144836286092) rotate(0 123.49479317988715 0.23542744856206355)"><path d="M0 0 C41.16 0.08, 205.82 0.39, 246.99 0.47 M0 0 C41.16 0.08, 205.82 0.39, 246.99 0.47" stroke="#1e1e1e" stroke-width="1" fill="none"></path></g></g><mask></mask><g transform="translate(353.3242296933672 124.06454325547196) rotate(0 5.5040130615234375 10)"><text x="0" y="0" font-family="Virgil, Segoe UI Emoji" font-size="16px" fill="#1e1e1e" text-anchor="start" style="white-space: pre;" direction="ltr" dominant-baseline="text-before-edge">0</text></g><g stroke-linecap="round"><g transform="translate(365.1878385303695 132.33497231070328) rotate(0 8.26629022716935 0.2874753923158835)"><path d="M0.49 0.41 C3.22 0.34, 13.93 0, 16.57 0.07 M0.08 0.15 C2.72 0.36, 13.53 0.55, 16.16 0.51" stroke="#1e1e1e" stroke-width="1" fill="none"></path></g></g><mask></mask><g stroke-linecap="round"><g transform="translate(381.51493774274513 98.6125940123149) rotate(0 0 24.342183710549477)"><path d="M0 0 C0 13, 0 25.99, 0 48.68 M0 0 C0 9.8, 0 19.61, 0 48.68" stroke="#1e1e1e" stroke-width="1" fill="none"></path></g></g><mask></mask><g stroke-linecap="round"><g transform="translate(381.51493774274513 97.96776795375735) rotate(0 4.35257589526384 3.546543322066782)"><path d="M0 0 C3.25 2.17, 5.73 5.27, 8.71 7.09 M0 0 C3.33 2.89, 6.84 5.48, 8.71 7.09" stroke="#1e1e1e" stroke-width="1" fill="none"></path></g></g><mask></mask><g stroke-linecap="round"><g transform="translate(381.8373507720239 147.29696143341374) rotate(0 4.030162865985005 -4.030162865985034)"><path d="M0 0 C2.07 -2.14, 5.27 -5.25, 8.06 -8.06 M0 0 C1.75 -1.96, 3.61 -3.58, 8.06 -8.06" stroke="#1e1e1e" stroke-width="1" fill="none"></path></g></g><mask></mask><g stroke-linecap="round"><g transform="translate(389.89767650399403 104.41602853933335) rotate(0 -0.16120651463944569 17.571510095694634)"><path d="M0 0 C0.72 6.6, -1.11 14.54, -0.32 35.14 M0 0 C-0.02 11.58, 0.1 22.86, -0.32 35.14" stroke="#1e1e1e" stroke-width="1" fill="none"></path></g></g><mask></mask><g stroke-linecap="round"><g transform="translate(390.15723071483717 120.96572565769293) rotate(0 11.344665489042256 -0.1972985302442396)"><path d="M0.11 -0.19 C3.87 -0.22, 19.16 -0.38, 22.92 -0.46 M-0.5 -0.77 C3.17 -0.68, 18.81 0.11, 22.61 0.21" stroke="#1e1e1e" stroke-width="1" fill="none"></path></g><g transform="translate(390.15723071483717 120.96572565769293) rotate(0 11.344665489042256 -0.1972985302442396)"><path d="M22.78 -0.12 L11.71 3.95 L12.43 -5.36 L22.67 -0.32" stroke="none" stroke-width="0" fill="#1e1e1e" fill-rule="evenodd"></path><path d="M22.61 0.21 C18.56 2.07, 14.85 3.44, 12.15 4.59 M22.61 0.21 C19.93 1.52, 17.24 2.57, 12.15 4.59 M12.15 4.59 C12.28 1.58, 12.16 -0.13, 12.53 -4.99 M12.15 4.59 C12.11 2.1, 12.44 -0.09, 12.53 -4.99 M12.53 -4.99 C16.25 -3.04, 20.31 -0.6, 22.61 0.21 M12.53 -4.99 C16.56 -2.79, 20.49 -1.21, 22.61 0.21 M22.61 0.21 C22.61 0.21, 22.61 0.21, 22.61 0.21 M22.61 0.21 C22.61 0.21, 22.61 0.21, 22.61 0.21" stroke="#1e1e1e" stroke-width="1" fill="none"></path></g></g><mask></mask><g stroke-linecap="round"><g transform="translate(229.5834437977246 249.7988549277594) rotate(0 -0.256867937832169 -43.73560877753653)"><path d="M0 0 C-0.09 -14.58, -0.43 -72.89, -0.51 -87.47 M0 0 C-0.09 -14.58, -0.43 -72.89, -0.51 -87.47" stroke="#1e1e1e" stroke-width="1" fill="none"></path></g></g><mask></mask><g stroke-linecap="round"><g transform="translate(229.1109459055259 161.9699102671292) rotate(0 15.900317879793533 0.10743458026888675)"><path d="M0 0 C5.3 0.04, 26.5 0.18, 31.8 0.21 M0 0 C5.3 0.04, 26.5 0.18, 31.8 0.21" stroke="#1e1e1e" stroke-width="1" fill="none"></path></g></g><mask></mask><g stroke-linecap="round"><g transform="translate(260.6967125045752 161.9699102671292) rotate(0 3.330471988335148 -1.6115187040331875)"><path d="M0 0 C0.57 -0.57, 2.33 -3.47, 3.44 -3.44 C4.55 -3.4, 6.12 -0.39, 6.66 0.21 M0 0 C0.57 -0.57, 2.33 -3.47, 3.44 -3.44 C4.55 -3.4, 6.12 -0.39, 6.66 0.21" stroke="#1e1e1e" stroke-width="1" fill="none"></path></g></g><mask></mask><g stroke-linecap="round"><g transform="translate(267.3576564812454 162.39964858820468) rotate(0 59.73362662949461 2.842170943040401e-14)"><path d="M0 0 C19.91 0, 99.56 0, 119.47 0 M0 0 C19.91 0, 99.56 0, 119.47 0" stroke="#1e1e1e" stroke-width="1" fill="none"></path></g></g><mask></mask><g stroke-linecap="round"><g transform="translate(386.8249097402346 162.39964858820474) rotate(0 0 -9.776546804467642)"><path d="M0 0 C0 -3.26, 0 -16.29, 0 -19.55 M0 0 C0 -3.26, 0 -16.29, 0 -19.55" stroke="#1e1e1e" stroke-width="1" fill="none"></path></g></g><mask></mask></svg>