<svg xmlns="http://www.w3.org/2000/svg" width="800" height="140" viewBox="0 0 800 140" xmlns:xlink="http://www.w3.org/1999/xlink"><g transform="translate(0.5,0.5)" text-anchor="middle" font-size="14" font-family="sans-serif" font-weight="normal"><g transform="translate(4,91)"><g stroke="black" stroke-width="1" stroke-linecap="round"><line x2="791"/><line y2="31"/><line x2="791" y1="31" y2="31"/><line x1="791" x2="791" y2="31"/><line x1="742" x2="742" y2="31"/><line x1="692" x2="692" y2="31"/><line x1="643" x2="643" y2="31"/><line x1="593" x2="593" y2="31"/><line x1="544" x2="544" y2="3"/><line x1="544" x2="544" y1="31" y2="28"/><line x1="494" x2="494" y2="3"/><line x1="494" x2="494" y1="31" y2="28"/><line x1="445" x2="445" y2="3"/><line x1="445" x2="445" y1="31" y2="28"/><line x1="396" x2="396" y2="3"/><line x1="396" x2="396" y1="31" y2="28"/><line x1="346" x2="346" y2="3"/><line x1="346" x2="346" y1="31" y2="28"/><line x1="297" x2="297" y2="3"/><line x1="297" x2="297" y1="31" y2="28"/><line x1="247" x2="247" y2="3"/><line x1="247" x2="247" y1="31" y2="28"/><line x1="198" x2="198" y2="3"/><line x1="198" x2="198" y1="31" y2="28"/><line x1="148" x2="148" y2="3"/><line x1="148" x2="148" y1="31" y2="28"/><line x1="99" x2="99" y2="3"/><line x1="99" x2="99" y1="31" y2="28"/><line x1="49" x2="49" y2="3"/><line x1="49" x2="49" y1="31" y2="28"/></g><g><g><rect width="593" height="31" style="fill-opacity:0.1"/></g><g transform="translate(25,-11)"><g transform="translate(742)"><text y="6">0</text></g><g transform="translate(692)"><text y="6">1</text></g><g transform="translate(643)"><text y="6">2</text></g><g transform="translate(593)"><text y="6">3</text></g><g transform="translate(544)"><text y="6">4</text></g><g transform="translate(0)"><text y="6">15</text></g></g><g transform="translate(25,15)"><g transform="translate(742)"><text y="6"><tspan>s_0</tspan></text></g><g transform="translate(692)"><text y="6"><tspan>s_1</tspan></text></g><g transform="translate(643)"><text y="6"><tspan>s_2</tspan></text></g><g transform="translate(593)"><text y="6"><tspan>s_3</tspan></text></g></g><g transform="translate(25,39)"><g transform="translate(742)"><text y="6"><tspan>W</tspan></text></g><g transform="translate(692)"><text y="6"><tspan>W</tspan></text></g><g transform="translate(643)"><text y="6"><tspan>W</tspan></text></g><g transform="translate(593)"><text y="6"><tspan>W</tspan></text></g><g transform="translate(272)"><text y="6"><tspan>ResR0W0</tspan></text></g></g></g></g><g transform="translate(4,21)"><g stroke="black" stroke-width="1" stroke-linecap="round"><line x2="791"/><line y2="31"/><line x2="791" y1="31" y2="31"/><line x1="791" x2="791" y2="31"/><line x1="742" x2="742" y2="31"/><line x1="692" x2="692" y2="31"/><line x1="643" x2="643" y2="31"/><line x1="593" x2="593" y2="31"/><line x1="544" x2="544" y2="3"/><line x1="544" x2="544" y1="31" y2="28"/><line x1="494" x2="494" y2="3"/><line x1="494" x2="494" y1="31" y2="28"/><line x1="445" x2="445" y2="3"/><line x1="445" x2="445" y1="31" y2="28"/><line x1="396" x2="396" y2="3"/><line x1="396" x2="396" y1="31" y2="28"/><line x1="346" x2="346" y2="3"/><line x1="346" x2="346" y1="31" y2="28"/><line x1="297" x2="297" y2="3"/><line x1="297" x2="297" y1="31" y2="28"/><line x1="247" x2="247" y2="3"/><line x1="247" x2="247" y1="31" y2="28"/><line x1="198" x2="198" y2="3"/><line x1="198" x2="198" y1="31" y2="28"/><line x1="148" x2="148" y2="3"/><line x1="148" x2="148" y1="31" y2="28"/><line x1="99" x2="99" y2="3"/><line x1="99" x2="99" y1="31" y2="28"/><line x1="49" x2="49" y2="3"/><line x1="49" x2="49" y1="31" y2="28"/></g><g><g><rect width="593" height="31" style="fill-opacity:0.1"/></g><g transform="translate(25,-11)"><g transform="translate(742)"><text y="6">16</text></g><g transform="translate(692)"><text y="6">17</text></g><g transform="translate(643)"><text y="6">18</text></g><g transform="translate(593)"><text y="6">19</text></g><g transform="translate(544)"><text y="6">20</text></g><g transform="translate(0)"><text y="6">31</text></g></g><g transform="translate(25,15)"><g transform="translate(742)"><text y="6"><tspan>c_0</tspan></text></g><g transform="translate(692)"><text y="6"><tspan>c_1</tspan></text></g><g transform="translate(643)"><text y="6"><tspan>c_2</tspan></text></g><g transform="translate(593)"><text y="6"><tspan>c_3</tspan></text></g></g><g transform="translate(25,39)"><g transform="translate(742)"><text y="6"><tspan>W</tspan></text></g><g transform="translate(692)"><text y="6"><tspan>W</tspan></text></g><g transform="translate(643)"><text y="6"><tspan>W</tspan></text></g><g transform="translate(593)"><text y="6"><tspan>W</tspan></text></g><g transform="translate(272)"><text y="6"><tspan>ResR0W0</tspan></text></g></g></g></g></g></svg>